<svg width="22" height="22" viewBox="0 0 22 22" fill="none" xmlns="http://www.w3.org/2000/svg">
<path d="M12.4251 20.45C12.2251 20.65 12.0041 20.7957 11.7621 20.887C11.5208 20.979 11.2668 21.025 11.0001 21.025C10.7334 21.025 10.4794 20.979 10.2381 20.887C9.9961 20.7957 9.7751 20.65 9.5751 20.45L1.5501 12.425C1.3501 12.225 1.2041 12.004 1.1121 11.762C1.02076 11.5207 0.975098 11.2667 0.975098 11C0.975098 10.7333 1.02076 10.4793 1.1121 10.238C1.2041 9.996 1.3501 9.775 1.5501 9.575L9.5751 1.55C9.7751 1.35 9.9961 1.204 10.2381 1.112C10.4794 1.02067 10.7334 0.975 11.0001 0.975C11.2668 0.975 11.5208 1.02067 11.7621 1.112C12.0041 1.204 12.2251 1.35 12.4251 1.55L20.4501 9.575C20.6501 9.775 20.7961 9.996 20.8881 10.238C20.9794 10.4793 21.0251 10.7333 21.0251 11C21.0251 11.2667 20.9794 11.5207 20.8881 11.762C20.7961 12.004 20.6501 12.225 20.4501 12.425L12.4251 20.45ZM11.0001 12C11.2834 12 11.5211 11.904 11.7131 11.712C11.9044 11.5207 12.0001 11.2833 12.0001 11V7C12.0001 6.71667 11.9044 6.479 11.7131 6.287C11.5211 6.09567 11.2834 6 11.0001 6C10.7168 6 10.4794 6.09567 10.2881 6.287C10.0961 6.479 10.0001 6.71667 10.0001 7V11C10.0001 11.2833 10.0961 11.5207 10.2881 11.712C10.4794 11.904 10.7168 12 11.0001 12ZM11.0001 15C11.2834 15 11.5211 14.904 11.7131 14.712C11.9044 14.5207 12.0001 14.2833 12.0001 14C12.0001 13.7167 11.9044 13.479 11.7131 13.287C11.5211 13.0957 11.2834 13 11.0001 13C10.7168 13 10.4794 13.0957 10.2881 13.287C10.0961 13.479 10.0001 13.7167 10.0001 14C10.0001 14.2833 10.0961 14.5207 10.2881 14.712C10.4794 14.904 10.7168 15 11.0001 15Z" fill="#B11B27"/>
</svg>
